<mxfile host="app.diagrams.net" modified="2022-04-28T12:19:45.936Z" agent="5.0 (Windows NT 10.0; Win64; x64) AppleWebKit/537.36 (KHTML, like Gecko) Chrome/100.0.4896.127 Safari/537.36" etag="6aC8JPkucDXlcHj3G2wn" version="17.4.6" type="github">
  <diagram name="Page-1" id="c4acf3e9-155e-7222-9cf6-157b1a14988f">
    <mxGraphModel dx="1072" dy="713" grid="1" gridSize="10" guides="1" tooltips="1" connect="1" arrows="1" fold="1" page="1" pageScale="1" pageWidth="850" pageHeight="1100" background="none" math="0" shadow="0">
      <root>
        <mxCell id="0" />
        <mxCell id="1" parent="0" />
        <mxCell id="17acba5748e5396b-1" value="模块" style="shape=umlFrame;whiteSpace=wrap;html=1;rounded=0;shadow=0;comic=0;labelBackgroundColor=none;strokeWidth=1;fontFamily=Verdana;fontSize=10;align=center;" parent="1" vertex="1">
          <mxGeometry x="30" y="20" width="820" height="1040" as="geometry" />
        </mxCell>
        <mxCell id="5d2195bd80daf111-38" style="edgeStyle=orthogonalEdgeStyle;rounded=0;html=1;dashed=1;labelBackgroundColor=none;startFill=0;endArrow=open;endFill=0;endSize=10;fontFamily=Verdana;fontSize=10;" parent="1" source="17acba5748e5396b-2" edge="1">
          <mxGeometry relative="1" as="geometry">
            <Array as="points">
              <mxPoint x="590" y="721" />
            </Array>
            <mxPoint x="590" y="823" as="targetPoint" />
          </mxGeometry>
        </mxCell>
        <mxCell id="5d2195bd80daf111-41" style="edgeStyle=orthogonalEdgeStyle;rounded=0;html=1;dashed=1;labelBackgroundColor=none;startFill=0;endArrow=open;endFill=0;endSize=10;fontFamily=Verdana;fontSize=10;" parent="1" target="17acba5748e5396b-2" edge="1">
          <mxGeometry relative="1" as="geometry">
            <Array as="points" />
            <mxPoint x="730" y="603" as="sourcePoint" />
          </mxGeometry>
        </mxCell>
        <mxCell id="5d2195bd80daf111-36" style="edgeStyle=orthogonalEdgeStyle;rounded=0;html=1;dashed=1;labelBackgroundColor=none;startFill=0;endArrow=open;endFill=0;endSize=10;fontFamily=Verdana;fontSize=10;" parent="1" source="5d2195bd80daf111-9" edge="1">
          <mxGeometry relative="1" as="geometry">
            <Array as="points">
              <mxPoint x="550" y="520" />
            </Array>
            <mxPoint x="490" y="520" as="targetPoint" />
          </mxGeometry>
        </mxCell>
        <mxCell id="5d2195bd80daf111-26" style="edgeStyle=orthogonalEdgeStyle;rounded=0;html=1;dashed=1;labelBackgroundColor=none;startFill=0;endArrow=open;endFill=0;endSize=10;fontFamily=Verdana;fontSize=10;" parent="1" target="5d2195bd80daf111-17" edge="1">
          <mxGeometry relative="1" as="geometry">
            <Array as="points" />
            <mxPoint x="640" y="300" as="sourcePoint" />
          </mxGeometry>
        </mxCell>
        <mxCell id="5d2195bd80daf111-37" style="edgeStyle=orthogonalEdgeStyle;rounded=0;html=1;dashed=1;labelBackgroundColor=none;startFill=0;endArrow=open;endFill=0;endSize=10;fontFamily=Verdana;fontSize=10;" parent="1" source="5d2195bd80daf111-5" edge="1">
          <mxGeometry relative="1" as="geometry">
            <Array as="points">
              <mxPoint x="570" y="590" />
            </Array>
            <mxPoint x="570" y="823" as="targetPoint" />
          </mxGeometry>
        </mxCell>
        <mxCell id="J0-w7opAnSBR1cz1V9J9-1" value="Stock DB" style="shape=cylinder3;whiteSpace=wrap;html=1;boundedLbl=1;backgroundOutline=1;size=15;" vertex="1" parent="1">
          <mxGeometry x="350" y="30" width="60" height="80" as="geometry" />
        </mxCell>
        <mxCell id="J0-w7opAnSBR1cz1V9J9-2" value="DBManager" style="shape=cube;whiteSpace=wrap;html=1;boundedLbl=1;backgroundOutline=1;darkOpacity=0.05;darkOpacity2=0.1;" vertex="1" parent="1">
          <mxGeometry x="330" y="160" width="120" height="80" as="geometry" />
        </mxCell>
        <mxCell id="J0-w7opAnSBR1cz1V9J9-3" value="" style="endArrow=classic;html=1;rounded=0;exitX=0;exitY=0;exitDx=50;exitDy=0;exitPerimeter=0;" edge="1" parent="1" source="J0-w7opAnSBR1cz1V9J9-2" target="J0-w7opAnSBR1cz1V9J9-1">
          <mxGeometry width="50" height="50" relative="1" as="geometry">
            <mxPoint x="400" y="280" as="sourcePoint" />
            <mxPoint x="450" y="230" as="targetPoint" />
          </mxGeometry>
        </mxCell>
        <mxCell id="J0-w7opAnSBR1cz1V9J9-4" value="Stock API" style="ellipse;shape=cloud;whiteSpace=wrap;html=1;" vertex="1" parent="1">
          <mxGeometry x="110" y="30" width="120" height="80" as="geometry" />
        </mxCell>
        <mxCell id="J0-w7opAnSBR1cz1V9J9-5" value="APIManager" style="shape=cube;whiteSpace=wrap;html=1;boundedLbl=1;backgroundOutline=1;darkOpacity=0.05;darkOpacity2=0.1;" vertex="1" parent="1">
          <mxGeometry x="100" y="160" width="120" height="80" as="geometry" />
        </mxCell>
        <mxCell id="J0-w7opAnSBR1cz1V9J9-6" value="" style="endArrow=classic;html=1;rounded=0;entryX=0.5;entryY=0.888;entryDx=0;entryDy=0;entryPerimeter=0;exitX=0.492;exitY=0;exitDx=0;exitDy=0;exitPerimeter=0;" edge="1" parent="1" source="J0-w7opAnSBR1cz1V9J9-5" target="J0-w7opAnSBR1cz1V9J9-4">
          <mxGeometry width="50" height="50" relative="1" as="geometry">
            <mxPoint x="400" y="280" as="sourcePoint" />
            <mxPoint x="450" y="230" as="targetPoint" />
          </mxGeometry>
        </mxCell>
        <mxCell id="J0-w7opAnSBR1cz1V9J9-7" value="DataManager" style="shape=cube;whiteSpace=wrap;html=1;boundedLbl=1;backgroundOutline=1;darkOpacity=0.05;darkOpacity2=0.1;" vertex="1" parent="1">
          <mxGeometry x="220" y="300" width="120" height="80" as="geometry" />
        </mxCell>
        <mxCell id="J0-w7opAnSBR1cz1V9J9-8" value="" style="endArrow=classic;html=1;rounded=0;exitX=0;exitY=0;exitDx=50;exitDy=0;exitPerimeter=0;entryX=0;entryY=0;entryDx=70;entryDy=80;entryPerimeter=0;" edge="1" parent="1" source="J0-w7opAnSBR1cz1V9J9-7" target="J0-w7opAnSBR1cz1V9J9-2">
          <mxGeometry width="50" height="50" relative="1" as="geometry">
            <mxPoint x="390" y="160" as="sourcePoint" />
            <mxPoint x="390" y="150" as="targetPoint" />
          </mxGeometry>
        </mxCell>
        <mxCell id="J0-w7opAnSBR1cz1V9J9-12" value="" style="endArrow=classic;html=1;rounded=0;exitX=0;exitY=0;exitDx=50;exitDy=0;exitPerimeter=0;entryX=0;entryY=0;entryDx=70;entryDy=80;entryPerimeter=0;" edge="1" parent="1" source="J0-w7opAnSBR1cz1V9J9-7" target="J0-w7opAnSBR1cz1V9J9-5">
          <mxGeometry width="50" height="50" relative="1" as="geometry">
            <mxPoint x="400" y="280" as="sourcePoint" />
            <mxPoint x="150" y="220" as="targetPoint" />
          </mxGeometry>
        </mxCell>
        <mxCell id="J0-w7opAnSBR1cz1V9J9-13" value="Indicators" style="shape=cube;whiteSpace=wrap;html=1;boundedLbl=1;backgroundOutline=1;darkOpacity=0.05;darkOpacity2=0.1;" vertex="1" parent="1">
          <mxGeometry x="590" y="310" width="120" height="80" as="geometry" />
        </mxCell>
        <mxCell id="J0-w7opAnSBR1cz1V9J9-14" value="TechManager&lt;br&gt;==========&lt;br&gt;Strategy" style="shape=cube;whiteSpace=wrap;html=1;boundedLbl=1;backgroundOutline=1;darkOpacity=0.05;darkOpacity2=0.1;" vertex="1" parent="1">
          <mxGeometry x="460" y="480" width="120" height="130" as="geometry" />
        </mxCell>
        <mxCell id="J0-w7opAnSBR1cz1V9J9-18" value="Run(data)" style="html=1;verticalAlign=bottom;endArrow=block;rounded=0;exitX=0;exitY=0;exitDx=120;exitDy=50;exitPerimeter=0;entryX=0;entryY=0;entryDx=70;entryDy=80;entryPerimeter=0;" edge="1" parent="1" source="J0-w7opAnSBR1cz1V9J9-14" target="J0-w7opAnSBR1cz1V9J9-13">
          <mxGeometry width="80" relative="1" as="geometry">
            <mxPoint x="380" y="250" as="sourcePoint" />
            <mxPoint x="460" y="250" as="targetPoint" />
          </mxGeometry>
        </mxCell>
        <mxCell id="J0-w7opAnSBR1cz1V9J9-19" value="LoadData()" style="html=1;verticalAlign=bottom;endArrow=block;rounded=0;exitX=0;exitY=0;exitDx=50;exitDy=0;exitPerimeter=0;entryX=0;entryY=0;entryDx=70;entryDy=80;entryPerimeter=0;" edge="1" parent="1" source="J0-w7opAnSBR1cz1V9J9-14" target="J0-w7opAnSBR1cz1V9J9-7">
          <mxGeometry width="80" relative="1" as="geometry">
            <mxPoint x="380" y="250" as="sourcePoint" />
            <mxPoint x="460" y="250" as="targetPoint" />
          </mxGeometry>
        </mxCell>
        <mxCell id="J0-w7opAnSBR1cz1V9J9-20" value="TaskManger&lt;br&gt;=========&lt;br&gt;StockData&lt;br&gt;Screener&lt;br&gt;Wathlist" style="shape=cube;whiteSpace=wrap;html=1;boundedLbl=1;backgroundOutline=1;darkOpacity=0.05;darkOpacity2=0.1;" vertex="1" parent="1">
          <mxGeometry x="270" y="480" width="120" height="120" as="geometry" />
        </mxCell>
        <mxCell id="J0-w7opAnSBR1cz1V9J9-21" value="" style="endArrow=classic;html=1;rounded=0;exitX=0;exitY=0;exitDx=120;exitDy=50;exitPerimeter=0;entryX=0;entryY=0;entryDx=0;entryDy=30;entryPerimeter=0;" edge="1" parent="1" source="J0-w7opAnSBR1cz1V9J9-20" target="J0-w7opAnSBR1cz1V9J9-14">
          <mxGeometry width="50" height="50" relative="1" as="geometry">
            <mxPoint x="400" y="380" as="sourcePoint" />
            <mxPoint x="450" y="330" as="targetPoint" />
          </mxGeometry>
        </mxCell>
        <mxCell id="J0-w7opAnSBR1cz1V9J9-23" value="" style="endArrow=classic;html=1;rounded=0;entryX=0;entryY=0;entryDx=70;entryDy=80;entryPerimeter=0;exitX=0;exitY=0;exitDx=50;exitDy=0;exitPerimeter=0;" edge="1" parent="1" source="J0-w7opAnSBR1cz1V9J9-20" target="J0-w7opAnSBR1cz1V9J9-7">
          <mxGeometry width="50" height="50" relative="1" as="geometry">
            <mxPoint x="180" y="480" as="sourcePoint" />
            <mxPoint x="450" y="330" as="targetPoint" />
          </mxGeometry>
        </mxCell>
        <mxCell id="J0-w7opAnSBR1cz1V9J9-24" value="UserManager" style="shape=cube;whiteSpace=wrap;html=1;boundedLbl=1;backgroundOutline=1;darkOpacity=0.05;darkOpacity2=0.1;" vertex="1" parent="1">
          <mxGeometry x="80" y="505" width="120" height="80" as="geometry" />
        </mxCell>
        <mxCell id="J0-w7opAnSBR1cz1V9J9-25" value="" style="endArrow=classic;html=1;rounded=0;exitX=0;exitY=0;exitDx=50;exitDy=0;exitPerimeter=0;entryX=0;entryY=0;entryDx=70;entryDy=80;entryPerimeter=0;" edge="1" parent="1" source="J0-w7opAnSBR1cz1V9J9-24" target="J0-w7opAnSBR1cz1V9J9-7">
          <mxGeometry width="50" height="50" relative="1" as="geometry">
            <mxPoint x="400" y="380" as="sourcePoint" />
            <mxPoint x="450" y="330" as="targetPoint" />
          </mxGeometry>
        </mxCell>
        <mxCell id="J0-w7opAnSBR1cz1V9J9-26" value="" style="endArrow=classic;html=1;rounded=0;exitX=0;exitY=0;exitDx=0;exitDy=30;exitPerimeter=0;entryX=0;entryY=0;entryDx=120;entryDy=50;entryPerimeter=0;" edge="1" parent="1" source="J0-w7opAnSBR1cz1V9J9-20" target="J0-w7opAnSBR1cz1V9J9-24">
          <mxGeometry width="50" height="50" relative="1" as="geometry">
            <mxPoint x="400" y="380" as="sourcePoint" />
            <mxPoint x="450" y="330" as="targetPoint" />
          </mxGeometry>
        </mxCell>
        <mxCell id="J0-w7opAnSBR1cz1V9J9-29" value="Server&amp;nbsp;&lt;br&gt;Console" style="ellipse;shape=cloud;whiteSpace=wrap;html=1;" vertex="1" parent="1">
          <mxGeometry x="270" y="720" width="120" height="80" as="geometry" />
        </mxCell>
        <mxCell id="J0-w7opAnSBR1cz1V9J9-30" value="Actor" style="shape=umlActor;verticalLabelPosition=bottom;verticalAlign=top;html=1;outlineConnect=0;" vertex="1" parent="1">
          <mxGeometry x="680" y="840" width="30" height="60" as="geometry" />
        </mxCell>
        <mxCell id="J0-w7opAnSBR1cz1V9J9-32" value="" style="endArrow=classic;html=1;rounded=0;exitX=0.583;exitY=0.125;exitDx=0;exitDy=0;exitPerimeter=0;entryX=0.533;entryY=0.988;entryDx=0;entryDy=0;entryPerimeter=0;" edge="1" parent="1" source="J0-w7opAnSBR1cz1V9J9-29" target="J0-w7opAnSBR1cz1V9J9-24">
          <mxGeometry width="50" height="50" relative="1" as="geometry">
            <mxPoint x="400" y="670" as="sourcePoint" />
            <mxPoint x="450" y="620" as="targetPoint" />
          </mxGeometry>
        </mxCell>
        <mxCell id="J0-w7opAnSBR1cz1V9J9-33" value="" style="endArrow=classic;html=1;rounded=0;exitX=0.625;exitY=0.2;exitDx=0;exitDy=0;exitPerimeter=0;entryX=0.483;entryY=1.008;entryDx=0;entryDy=0;entryPerimeter=0;" edge="1" parent="1" source="J0-w7opAnSBR1cz1V9J9-29" target="J0-w7opAnSBR1cz1V9J9-20">
          <mxGeometry width="50" height="50" relative="1" as="geometry">
            <mxPoint x="400" y="670" as="sourcePoint" />
            <mxPoint x="450" y="620" as="targetPoint" />
          </mxGeometry>
        </mxCell>
        <mxCell id="J0-w7opAnSBR1cz1V9J9-34" value="" style="endArrow=classic;html=1;rounded=0;exitX=0.625;exitY=0.2;exitDx=0;exitDy=0;exitPerimeter=0;" edge="1" parent="1" source="J0-w7opAnSBR1cz1V9J9-29" target="J0-w7opAnSBR1cz1V9J9-14">
          <mxGeometry width="50" height="50" relative="1" as="geometry">
            <mxPoint x="400" y="670" as="sourcePoint" />
            <mxPoint x="450" y="620" as="targetPoint" />
          </mxGeometry>
        </mxCell>
        <mxCell id="J0-w7opAnSBR1cz1V9J9-38" value="Website UI" style="shape=parallelogram;perimeter=parallelogramPerimeter;whiteSpace=wrap;html=1;fixedSize=1;" vertex="1" parent="1">
          <mxGeometry x="490" y="740" width="120" height="60" as="geometry" />
        </mxCell>
        <mxCell id="J0-w7opAnSBR1cz1V9J9-39" value="" style="endArrow=classic;html=1;rounded=0;exitX=0;exitY=0.5;exitDx=0;exitDy=0;entryX=0.875;entryY=0.5;entryDx=0;entryDy=0;entryPerimeter=0;" edge="1" parent="1" source="J0-w7opAnSBR1cz1V9J9-38" target="J0-w7opAnSBR1cz1V9J9-29">
          <mxGeometry width="50" height="50" relative="1" as="geometry">
            <mxPoint x="400" y="630" as="sourcePoint" />
            <mxPoint x="450" y="580" as="targetPoint" />
          </mxGeometry>
        </mxCell>
        <mxCell id="J0-w7opAnSBR1cz1V9J9-40" value="" style="endArrow=classic;html=1;rounded=0;exitX=0.5;exitY=0.5;exitDx=0;exitDy=0;exitPerimeter=0;entryX=0.75;entryY=1;entryDx=0;entryDy=0;" edge="1" parent="1" source="J0-w7opAnSBR1cz1V9J9-30" target="J0-w7opAnSBR1cz1V9J9-38">
          <mxGeometry width="50" height="50" relative="1" as="geometry">
            <mxPoint x="400" y="630" as="sourcePoint" />
            <mxPoint x="450" y="580" as="targetPoint" />
          </mxGeometry>
        </mxCell>
        <mxCell id="J0-w7opAnSBR1cz1V9J9-41" value="API&lt;br&gt;Manager" style="shape=umlFrame;whiteSpace=wrap;html=1;" vertex="1" parent="1">
          <mxGeometry x="15" y="1120" width="820" height="1040" as="geometry" />
        </mxCell>
        <mxCell id="J0-w7opAnSBR1cz1V9J9-42" value="&lt;p style=&quot;margin: 0px ; margin-top: 4px ; text-align: center&quot;&gt;&lt;i&gt;&amp;lt;&amp;lt;Interface&amp;gt;&amp;gt;&lt;/i&gt;&lt;br&gt;&lt;b&gt;StockAPI&lt;/b&gt;&lt;/p&gt;&lt;hr size=&quot;1&quot;&gt;&lt;p style=&quot;margin: 0px ; margin-left: 4px&quot;&gt;+ Name: string&lt;br&gt;+ SupportInterday: bool&lt;/p&gt;&lt;p style=&quot;margin: 0px ; margin-left: 4px&quot;&gt;+ Quote: APIQuote&lt;/p&gt;&lt;hr size=&quot;1&quot;&gt;&lt;p style=&quot;margin: 0px ; margin-left: 4px&quot;&gt;+ HistoryData(symbol, market, period): StockData[]&lt;br&gt;+ MarketData(market, date): StockData[]&lt;/p&gt;&lt;p style=&quot;margin: 0px ; margin-left: 4px&quot;&gt;+ LiveData(symbol, market): StockData[]&lt;/p&gt;&lt;p style=&quot;margin: 0px ; margin-left: 4px&quot;&gt;+ MetaData(symbol) : string&lt;/p&gt;&lt;p style=&quot;margin: 0px ; margin-left: 4px&quot;&gt;+ StockEvent(symbol) : string&lt;/p&gt;&lt;p style=&quot;margin: 0px ; margin-left: 4px&quot;&gt;&lt;br&gt;&lt;/p&gt;" style="verticalAlign=top;align=left;overflow=fill;fontSize=12;fontFamily=Helvetica;html=1;" vertex="1" parent="1">
          <mxGeometry x="50" y="1190" width="280" height="210" as="geometry" />
        </mxCell>
        <mxCell id="J0-w7opAnSBR1cz1V9J9-43" value="&lt;p style=&quot;margin: 0px ; margin-top: 4px ; text-align: center&quot;&gt;&lt;br&gt;&lt;b&gt;API_EOD&lt;/b&gt;&lt;/p&gt;" style="verticalAlign=top;align=left;overflow=fill;fontSize=12;fontFamily=Helvetica;html=1;" vertex="1" parent="1">
          <mxGeometry x="440" y="1300" width="140" height="60" as="geometry" />
        </mxCell>
        <mxCell id="J0-w7opAnSBR1cz1V9J9-44" value="" style="endArrow=block;dashed=1;endFill=0;endSize=12;html=1;rounded=0;exitX=-0.014;exitY=0.15;exitDx=0;exitDy=0;exitPerimeter=0;entryX=1;entryY=0.5;entryDx=0;entryDy=0;" edge="1" parent="1" source="J0-w7opAnSBR1cz1V9J9-43" target="J0-w7opAnSBR1cz1V9J9-42">
          <mxGeometry width="160" relative="1" as="geometry">
            <mxPoint x="340" y="1160" as="sourcePoint" />
            <mxPoint x="500" y="1160" as="targetPoint" />
          </mxGeometry>
        </mxCell>
        <mxCell id="J0-w7opAnSBR1cz1V9J9-45" value="&lt;p style=&quot;margin: 0px ; margin-top: 4px ; text-align: center&quot;&gt;&lt;br&gt;&lt;b&gt;API_Yahoo&lt;/b&gt;&lt;/p&gt;" style="verticalAlign=top;align=left;overflow=fill;fontSize=12;fontFamily=Helvetica;html=1;" vertex="1" parent="1">
          <mxGeometry x="590" y="1170" width="140" height="60" as="geometry" />
        </mxCell>
        <mxCell id="J0-w7opAnSBR1cz1V9J9-46" value="" style="endArrow=block;dashed=1;endFill=0;endSize=12;html=1;rounded=0;entryX=0.989;entryY=0.329;entryDx=0;entryDy=0;entryPerimeter=0;exitX=0;exitY=0.5;exitDx=0;exitDy=0;" edge="1" parent="1" source="J0-w7opAnSBR1cz1V9J9-45" target="J0-w7opAnSBR1cz1V9J9-42">
          <mxGeometry width="160" relative="1" as="geometry">
            <mxPoint x="340" y="1160" as="sourcePoint" />
            <mxPoint x="500" y="1160" as="targetPoint" />
          </mxGeometry>
        </mxCell>
        <mxCell id="J0-w7opAnSBR1cz1V9J9-47" value="......" style="text;html=1;strokeColor=none;fillColor=none;align=center;verticalAlign=middle;whiteSpace=wrap;rounded=0;" vertex="1" parent="1">
          <mxGeometry x="540" y="1240" width="60" height="30" as="geometry" />
        </mxCell>
        <mxCell id="J0-w7opAnSBR1cz1V9J9-53" value="Data&lt;br&gt;Manager" style="shape=umlFrame;whiteSpace=wrap;html=1;" vertex="1" parent="1">
          <mxGeometry x="60" y="1550" width="690" height="350" as="geometry" />
        </mxCell>
        <mxCell id="J0-w7opAnSBR1cz1V9J9-61" value="" style="endArrow=open;endFill=1;endSize=12;html=1;rounded=0;exitX=0.458;exitY=-0.025;exitDx=0;exitDy=0;exitPerimeter=0;" edge="1" parent="1" source="J0-w7opAnSBR1cz1V9J9-68" target="J0-w7opAnSBR1cz1V9J9-43">
          <mxGeometry width="160" relative="1" as="geometry">
            <mxPoint x="401.66666666666674" y="1430" as="sourcePoint" />
            <mxPoint x="500" y="1400" as="targetPoint" />
          </mxGeometry>
        </mxCell>
        <mxCell id="J0-w7opAnSBR1cz1V9J9-62" value="" style="endArrow=block;dashed=1;endFill=0;endSize=12;html=1;rounded=0;exitX=0.332;exitY=0.025;exitDx=0;exitDy=0;entryX=0.461;entryY=0.981;entryDx=0;entryDy=0;entryPerimeter=0;exitPerimeter=0;" edge="1" parent="1" source="J0-w7opAnSBR1cz1V9J9-68" target="J0-w7opAnSBR1cz1V9J9-42">
          <mxGeometry width="160" relative="1" as="geometry">
            <mxPoint x="247.5" y="1430" as="sourcePoint" />
            <mxPoint x="500" y="1500" as="targetPoint" />
          </mxGeometry>
        </mxCell>
        <mxCell id="J0-w7opAnSBR1cz1V9J9-65" value="" style="endArrow=open;endFill=1;endSize=12;html=1;rounded=0;exitX=0.637;exitY=-0.006;exitDx=0;exitDy=0;exitPerimeter=0;entryX=0.5;entryY=1;entryDx=0;entryDy=0;" edge="1" parent="1" source="J0-w7opAnSBR1cz1V9J9-68" target="J0-w7opAnSBR1cz1V9J9-45">
          <mxGeometry width="160" relative="1" as="geometry">
            <mxPoint x="411.1199999999999" y="1428.08" as="sourcePoint" />
            <mxPoint x="500" y="1500" as="targetPoint" />
            <Array as="points">
              <mxPoint x="590" y="1380" />
            </Array>
          </mxGeometry>
        </mxCell>
        <mxCell id="J0-w7opAnSBR1cz1V9J9-67" value="&lt;p style=&quot;margin: 0px ; margin-top: 4px ; text-align: center&quot;&gt;&lt;b&gt;APIFactory&lt;/b&gt;&lt;/p&gt;&lt;hr size=&quot;1&quot;&gt;&lt;p style=&quot;margin: 0px ; margin-left: 4px&quot;&gt;+ field: Type&lt;/p&gt;&lt;hr size=&quot;1&quot;&gt;&lt;p style=&quot;margin: 0px ; margin-left: 4px&quot;&gt;+ GetAPI(name, market): StockApiImpl&lt;/p&gt;&lt;p style=&quot;margin: 0px ; margin-left: 4px&quot;&gt;+ APIList(): string&lt;/p&gt;" style="verticalAlign=top;align=left;overflow=fill;fontSize=12;fontFamily=Helvetica;html=1;" vertex="1" parent="1">
          <mxGeometry x="425" y="1630" width="255" height="130" as="geometry" />
        </mxCell>
        <mxCell id="J0-w7opAnSBR1cz1V9J9-68" value="&lt;p style=&quot;margin: 4px 0px 0px ; text-align: center&quot;&gt;&lt;b&gt;StockApiImpl&lt;/b&gt;&lt;/p&gt;&lt;hr size=&quot;1&quot;&gt;&lt;p style=&quot;margin: 0px 0px 0px 4px&quot;&gt;- apis: StockAPI[]&lt;/p&gt;&lt;p style=&quot;margin: 0px 0px 0px 4px&quot;&gt;+ API: StockAPI&lt;/p&gt;&lt;hr size=&quot;1&quot;&gt;&lt;p style=&quot;margin: 0px 0px 0px 4px&quot;&gt;+ ChangeAPI(name): Type&lt;/p&gt;&lt;p style=&quot;margin: 0px 0px 0px 4px&quot;&gt;+ GetQuote()&lt;/p&gt;&lt;p style=&quot;margin: 0px 0px 0px 4px&quot;&gt;+ UpdateQuote()&lt;/p&gt;&lt;p style=&quot;margin: 0px 0px 0px 4px&quot;&gt;+ HistoryData()&lt;/p&gt;&lt;p style=&quot;margin: 0px ; margin-left: 4px&quot;&gt;&lt;br&gt;&lt;/p&gt;&lt;p style=&quot;margin: 0px ; margin-left: 4px&quot;&gt;&lt;br&gt;&lt;/p&gt;" style="verticalAlign=top;align=left;overflow=fill;fontSize=12;fontFamily=Helvetica;html=1;" vertex="1" parent="1">
          <mxGeometry x="110" y="1610" width="190" height="160" as="geometry" />
        </mxCell>
        <mxCell id="J0-w7opAnSBR1cz1V9J9-69" value="" style="endArrow=open;endFill=1;endSize=12;html=1;rounded=0;exitX=0;exitY=0.5;exitDx=0;exitDy=0;entryX=1;entryY=0.5;entryDx=0;entryDy=0;" edge="1" parent="1" source="J0-w7opAnSBR1cz1V9J9-67" target="J0-w7opAnSBR1cz1V9J9-68">
          <mxGeometry width="160" relative="1" as="geometry">
            <mxPoint x="340" y="1600" as="sourcePoint" />
            <mxPoint x="500" y="1600" as="targetPoint" />
          </mxGeometry>
        </mxCell>
        <mxCell id="J0-w7opAnSBR1cz1V9J9-70" value="&lt;p style=&quot;margin: 0px ; margin-top: 4px ; text-align: center&quot;&gt;&lt;b&gt;APIList&lt;/b&gt;&lt;/p&gt;&lt;hr size=&quot;1&quot;&gt;&lt;p style=&quot;margin: 0px ; margin-left: 4px&quot;&gt;+ field: Type&lt;/p&gt;&lt;hr size=&quot;1&quot;&gt;&lt;p style=&quot;margin: 0px ; margin-left: 4px&quot;&gt;+ GetAPIs(): string[]&lt;/p&gt;" style="verticalAlign=top;align=left;overflow=fill;fontSize=12;fontFamily=Helvetica;html=1;" vertex="1" parent="1">
          <mxGeometry x="610" y="1400" width="160" height="90" as="geometry" />
        </mxCell>
      </root>
    </mxGraphModel>
  </diagram>
</mxfile>
